<svg xmlns="http://www.w3.org/2000/svg" viewBox="0 0 660 420" role="img" aria-labelledby="title desc">
<title id="title">Plano de lotización referencial</title>
<desc id="desc">Ilustración de seis manzanas con lotes verdes, amarillos y terracota, avenidas y un parque central. No representa un proyecto real.</desc>
<rect width="660" height="420" fill="#e9eddf"/>
<path d="M0 202H660M230 0V420M416 0V420M0 47H660M0 378H660M42 0V420M602 0V420" stroke="#fffdf7" stroke-width="24"/>
<path d="M0 202H660M230 0V420M416 0V420M0 47H660M0 378H660M42 0V420M602 0V420" stroke="#d1d7ca" stroke-width="1" stroke-dasharray="8 7"/>
<g font-family="Arial,sans-serif"><rect x="68" y="75" width="25" height="44" rx="2" fill="#bb9180" stroke="#fcfdf8" stroke-width="1.5"/><text x="80.5" y="100" text-anchor="middle" font-size="7" fill="#476041">01</text><rect x="96" y="75" width="25" height="44" rx="2" fill="#a8c785" stroke="#fcfdf8" stroke-width="1.5"/><text x="108.5" y="100" text-anchor="middle" font-size="7" fill="#476041">02</text><rect x="124" y="75" width="25" height="44" rx="2" fill="#a8c785" stroke="#fcfdf8" stroke-width="1.5"/><text x="136.5" y="100" text-anchor="middle" font-size="7" fill="#476041">03</text><rect x="152" y="75" width="25" height="44" rx="2" fill="#a8c785" stroke="#fcfdf8" stroke-width="1.5"/><text x="164.5" y="100" text-anchor="middle" font-size="7" fill="#476041">04</text><rect x="180" y="75" width="25" height="44" rx="2" fill="#a8c785" stroke="#fcfdf8" stroke-width="1.5"/><text x="192.5" y="100" text-anchor="middle" font-size="7" fill="#476041">05</text><rect x="68" y="123" width="25" height="44" rx="2" fill="#a8c785" stroke="#fcfdf8" stroke-width="1.5"/><text x="80.5" y="148" text-anchor="middle" font-size="7" fill="#476041">06</text><rect x="96" y="123" width="25" height="44" rx="2" fill="#a8c785" stroke="#fcfdf8" stroke-width="1.5"/><text x="108.5" y="148" text-anchor="middle" font-size="7" fill="#476041">07</text><rect x="124" y="123" width="25" height="44" rx="2" fill="#e6c17f" stroke="#fcfdf8" stroke-width="1.5"/><text x="136.5" y="148" text-anchor="middle" font-size="7" fill="#476041">08</text><rect x="152" y="123" width="25" height="44" rx="2" fill="#bb9180" stroke="#fcfdf8" stroke-width="1.5"/><text x="164.5" y="148" text-anchor="middle" font-size="7" fill="#476041">09</text><rect x="180" y="123" width="25" height="44" rx="2" fill="#a8c785" stroke="#fcfdf8" stroke-width="1.5"/><text x="192.5" y="148" text-anchor="middle" font-size="7" fill="#476041">10</text><rect x="253" y="75" width="25" height="44" rx="2" fill="#a8c785" stroke="#fcfdf8" stroke-width="1.5"/><text x="265.5" y="100" text-anchor="middle" font-size="7" fill="#476041">01</text><rect x="281" y="75" width="25" height="44" rx="2" fill="#a8c785" stroke="#fcfdf8" stroke-width="1.5"/><text x="293.5" y="100" text-anchor="middle" font-size="7" fill="#476041">02</text><rect x="309" y="75" width="25" height="44" rx="2" fill="#a8c785" stroke="#fcfdf8" stroke-width="1.5"/><text x="321.5" y="100" text-anchor="middle" font-size="7" fill="#476041">03</text><rect x="337" y="75" width="25" height="44" rx="2" fill="#a8c785" stroke="#fcfdf8" stroke-width="1.5"/><text x="349.5" y="100" text-anchor="middle" font-size="7" fill="#476041">04</text><rect x="365" y="75" width="25" height="44" rx="2" fill="#a8c785" stroke="#fcfdf8" stroke-width="1.5"/><text x="377.5" y="100" text-anchor="middle" font-size="7" fill="#476041">05</text><rect x="253" y="123" width="25" height="44" rx="2" fill="#a8c785" stroke="#fcfdf8" stroke-width="1.5"/><text x="265.5" y="148" text-anchor="middle" font-size="7" fill="#476041">06</text><rect x="281" y="123" width="25" height="44" rx="2" fill="#e6c17f" stroke="#fcfdf8" stroke-width="1.5"/><text x="293.5" y="148" text-anchor="middle" font-size="7" fill="#476041">07</text><rect x="309" y="123" width="25" height="44" rx="2" fill="#bb9180" stroke="#fcfdf8" stroke-width="1.5"/><text x="321.5" y="148" text-anchor="middle" font-size="7" fill="#476041">08</text><rect x="337" y="123" width="25" height="44" rx="2" fill="#a8c785" stroke="#fcfdf8" stroke-width="1.5"/><text x="349.5" y="148" text-anchor="middle" font-size="7" fill="#476041">09</text><rect x="365" y="123" width="25" height="44" rx="2" fill="#a8c785" stroke="#fcfdf8" stroke-width="1.5"/><text x="377.5" y="148" text-anchor="middle" font-size="7" fill="#476041">10</text><rect x="438" y="75" width="25" height="44" rx="2" fill="#a8c785" stroke="#fcfdf8" stroke-width="1.5"/><text x="450.5" y="100" text-anchor="middle" font-size="7" fill="#476041">01</text><rect x="466" y="75" width="25" height="44" rx="2" fill="#a8c785" stroke="#fcfdf8" stroke-width="1.5"/><text x="478.5" y="100" text-anchor="middle" font-size="7" fill="#476041">02</text><rect x="494" y="75" width="25" height="44" rx="2" fill="#a8c785" stroke="#fcfdf8" stroke-width="1.5"/><text x="506.5" y="100" text-anchor="middle" font-size="7" fill="#476041">03</text><rect x="522" y="75" width="25" height="44" rx="2" fill="#a8c785" stroke="#fcfdf8" stroke-width="1.5"/><text x="534.5" y="100" text-anchor="middle" font-size="7" fill="#476041">04</text><rect x="550" y="75" width="25" height="44" rx="2" fill="#a8c785" stroke="#fcfdf8" stroke-width="1.5"/><text x="562.5" y="100" text-anchor="middle" font-size="7" fill="#476041">05</text><rect x="438" y="123" width="25" height="44" rx="2" fill="#e6c17f" stroke="#fcfdf8" stroke-width="1.5"/><text x="450.5" y="148" text-anchor="middle" font-size="7" fill="#476041">06</text><rect x="466" y="123" width="25" height="44" rx="2" fill="#bb9180" stroke="#fcfdf8" stroke-width="1.5"/><text x="478.5" y="148" text-anchor="middle" font-size="7" fill="#476041">07</text><rect x="494" y="123" width="25" height="44" rx="2" fill="#a8c785" stroke="#fcfdf8" stroke-width="1.5"/><text x="506.5" y="148" text-anchor="middle" font-size="7" fill="#476041">08</text><rect x="522" y="123" width="25" height="44" rx="2" fill="#a8c785" stroke="#fcfdf8" stroke-width="1.5"/><text x="534.5" y="148" text-anchor="middle" font-size="7" fill="#476041">09</text><rect x="550" y="123" width="25" height="44" rx="2" fill="#a8c785" stroke="#fcfdf8" stroke-width="1.5"/><text x="562.5" y="148" text-anchor="middle" font-size="7" fill="#476041">10</text><rect x="68" y="245" width="25" height="44" rx="2" fill="#a8c785" stroke="#fcfdf8" stroke-width="1.5"/><text x="80.5" y="270" text-anchor="middle" font-size="7" fill="#476041">01</text><rect x="96" y="245" width="25" height="44" rx="2" fill="#a8c785" stroke="#fcfdf8" stroke-width="1.5"/><text x="108.5" y="270" text-anchor="middle" font-size="7" fill="#476041">02</text><rect x="124" y="245" width="25" height="44" rx="2" fill="#a8c785" stroke="#fcfdf8" stroke-width="1.5"/><text x="136.5" y="270" text-anchor="middle" font-size="7" fill="#476041">03</text><rect x="152" y="245" width="25" height="44" rx="2" fill="#a8c785" stroke="#fcfdf8" stroke-width="1.5"/><text x="164.5" y="270" text-anchor="middle" font-size="7" fill="#476041">04</text><rect x="180" y="245" width="25" height="44" rx="2" fill="#e6c17f" stroke="#fcfdf8" stroke-width="1.5"/><text x="192.5" y="270" text-anchor="middle" font-size="7" fill="#476041">05</text><rect x="68" y="293" width="25" height="44" rx="2" fill="#bb9180" stroke="#fcfdf8" stroke-width="1.5"/><text x="80.5" y="318" text-anchor="middle" font-size="7" fill="#476041">06</text><rect x="96" y="293" width="25" height="44" rx="2" fill="#a8c785" stroke="#fcfdf8" stroke-width="1.5"/><text x="108.5" y="318" text-anchor="middle" font-size="7" fill="#476041">07</text><rect x="124" y="293" width="25" height="44" rx="2" fill="#a8c785" stroke="#fcfdf8" stroke-width="1.5"/><text x="136.5" y="318" text-anchor="middle" font-size="7" fill="#476041">08</text><rect x="152" y="293" width="25" height="44" rx="2" fill="#a8c785" stroke="#fcfdf8" stroke-width="1.5"/><text x="164.5" y="318" text-anchor="middle" font-size="7" fill="#476041">09</text><rect x="180" y="293" width="25" height="44" rx="2" fill="#a8c785" stroke="#fcfdf8" stroke-width="1.5"/><text x="192.5" y="318" text-anchor="middle" font-size="7" fill="#476041">10</text><rect x="253" y="245" width="25" height="44" rx="2" fill="#a8c785" stroke="#fcfdf8" stroke-width="1.5"/><text x="265.5" y="270" text-anchor="middle" font-size="7" fill="#476041">01</text><rect x="281" y="245" width="25" height="44" rx="2" fill="#a8c785" stroke="#fcfdf8" stroke-width="1.5"/><text x="293.5" y="270" text-anchor="middle" font-size="7" fill="#476041">02</text><rect x="309" y="245" width="25" height="44" rx="2" fill="#a8c785" stroke="#fcfdf8" stroke-width="1.5"/><text x="321.5" y="270" text-anchor="middle" font-size="7" fill="#476041">03</text><rect x="337" y="245" width="25" height="44" rx="2" fill="#e6c17f" stroke="#fcfdf8" stroke-width="1.5"/><text x="349.5" y="270" text-anchor="middle" font-size="7" fill="#476041">04</text><rect x="365" y="245" width="25" height="44" rx="2" fill="#bb9180" stroke="#fcfdf8" stroke-width="1.5"/><text x="377.5" y="270" text-anchor="middle" font-size="7" fill="#476041">05</text><rect x="253" y="293" width="25" height="44" rx="2" fill="#a8c785" stroke="#fcfdf8" stroke-width="1.5"/><text x="265.5" y="318" text-anchor="middle" font-size="7" fill="#476041">06</text><rect x="281" y="293" width="25" height="44" rx="2" fill="#a8c785" stroke="#fcfdf8" stroke-width="1.5"/><text x="293.5" y="318" text-anchor="middle" font-size="7" fill="#476041">07</text><rect x="309" y="293" width="25" height="44" rx="2" fill="#a8c785" stroke="#fcfdf8" stroke-width="1.5"/><text x="321.5" y="318" text-anchor="middle" font-size="7" fill="#476041">08</text><rect x="337" y="293" width="25" height="44" rx="2" fill="#a8c785" stroke="#fcfdf8" stroke-width="1.5"/><text x="349.5" y="318" text-anchor="middle" font-size="7" fill="#476041">09</text><rect x="365" y="293" width="25" height="44" rx="2" fill="#a8c785" stroke="#fcfdf8" stroke-width="1.5"/><text x="377.5" y="318" text-anchor="middle" font-size="7" fill="#476041">10</text><rect x="438" y="245" width="25" height="44" rx="2" fill="#a8c785" stroke="#fcfdf8" stroke-width="1.5"/><text x="450.5" y="270" text-anchor="middle" font-size="7" fill="#476041">01</text><rect x="466" y="245" width="25" height="44" rx="2" fill="#a8c785" stroke="#fcfdf8" stroke-width="1.5"/><text x="478.5" y="270" text-anchor="middle" font-size="7" fill="#476041">02</text><rect x="494" y="245" width="25" height="44" rx="2" fill="#e6c17f" stroke="#fcfdf8" stroke-width="1.5"/><text x="506.5" y="270" text-anchor="middle" font-size="7" fill="#476041">03</text><rect x="522" y="245" width="25" height="44" rx="2" fill="#bb9180" stroke="#fcfdf8" stroke-width="1.5"/><text x="534.5" y="270" text-anchor="middle" font-size="7" fill="#476041">04</text><rect x="550" y="245" width="25" height="44" rx="2" fill="#a8c785" stroke="#fcfdf8" stroke-width="1.5"/><text x="562.5" y="270" text-anchor="middle" font-size="7" fill="#476041">05</text><rect x="438" y="293" width="25" height="44" rx="2" fill="#a8c785" stroke="#fcfdf8" stroke-width="1.5"/><text x="450.5" y="318" text-anchor="middle" font-size="7" fill="#476041">06</text><rect x="466" y="293" width="25" height="44" rx="2" fill="#a8c785" stroke="#fcfdf8" stroke-width="1.5"/><text x="478.5" y="318" text-anchor="middle" font-size="7" fill="#476041">07</text><rect x="494" y="293" width="25" height="44" rx="2" fill="#a8c785" stroke="#fcfdf8" stroke-width="1.5"/><text x="506.5" y="318" text-anchor="middle" font-size="7" fill="#476041">08</text><rect x="522" y="293" width="25" height="44" rx="2" fill="#a8c785" stroke="#fcfdf8" stroke-width="1.5"/><text x="534.5" y="318" text-anchor="middle" font-size="7" fill="#476041">09</text><rect x="550" y="293" width="25" height="44" rx="2" fill="#e6c17f" stroke="#fcfdf8" stroke-width="1.5"/><text x="562.5" y="318" text-anchor="middle" font-size="7" fill="#476041">10</text></g>
<g fill="#6f9155"><circle cx="105" cy="181" r="9"/><circle cx="150" cy="181" r="9"/><circle cx="292" cy="181" r="9"/><circle cx="340" cy="181" r="9"/><circle cx="477" cy="181" r="9"/><circle cx="525" cy="181" r="9"/><circle cx="105" cy="350" r="9"/><circle cx="150" cy="350" r="9"/><circle cx="292" cy="350" r="9"/><circle cx="340" cy="350" r="9"/><circle cx="477" cy="350" r="9"/><circle cx="525" cy="350" r="9"/></g>
<g font-family="Arial,sans-serif" font-size="8" letter-spacing="2" fill="#8c9883"><text x="266" y="205">AVENIDA PRINCIPAL</text><text x="277" y="30">PARQUE Y ÁREAS VERDES</text><text x="250" y="407">ESQUEMA ILUSTRATIVO</text></g>
</svg>
